<svg xmlns="http://www.w3.org/2000/svg" width="24.855" height="22.436" viewBox="0 0 24.855 22.436"><defs><style>.a{fill:#fff;}</style></defs><path class="a" d="M204.72,355.206H188.574a1.446,1.446,0,0,0-1.446,1.446v11.5a1.446,1.446,0,0,0,1.446,1.446H204.72a1.446,1.446,0,0,0,1.446-1.446v-11.5A1.446,1.446,0,0,0,204.72,355.206Zm-.566,2.012v2.406H189.14v-2.406Zm-15.014,10.37v-5.417h15.014v5.417Z" transform="translate(-181.311 -347.165)"/><path class="a" d="M182.782,327.231h-13.1a3.306,3.306,0,0,0-3.3,3.3v5.173l-3.1-1.375a1.447,1.447,0,0,1-.735-1.908l4.66-10.516a1.446,1.446,0,0,1,1.908-.737Z" transform="translate(-162.417 -321.047)"/></svg>