<svg xmlns="http://www.w3.org/2000/svg" width="30.132" height="22.015" viewBox="0 0 30.132 22.015"><defs><style>.a{fill:#fff;}</style></defs><path class="a" d="M-128.687,359.584h-9.581A1.732,1.732,0,0,0-140,361.316V370.9a1.732,1.732,0,0,0,1.732,1.732h9.581a1.732,1.732,0,0,0,1.732-1.732v-9.581A1.732,1.732,0,0,0-128.687,359.584Zm-8.124,10.726a1.16,1.16,0,0,1-1.16-1.16,1.16,1.16,0,0,1,1.16-1.159,1.159,1.159,0,0,1,1.16,1.159A1.159,1.159,0,0,1-136.811,370.31Zm0-6.088a1.16,1.16,0,0,1-1.16-1.159,1.16,1.16,0,0,1,1.16-1.16,1.159,1.159,0,0,1,1.16,1.16A1.159,1.159,0,0,1-136.811,364.222Zm3.189,2.9a1.16,1.16,0,0,1-1.16-1.16,1.16,1.16,0,0,1,1.16-1.16,1.16,1.16,0,0,1,1.16,1.16A1.159,1.159,0,0,1-133.622,367.121Zm3.189,3.189a1.159,1.159,0,0,1-1.159-1.16,1.159,1.159,0,0,1,1.159-1.159,1.159,1.159,0,0,1,1.16,1.159A1.159,1.159,0,0,1-130.434,370.31Zm0-6.088a1.159,1.159,0,0,1-1.159-1.159,1.159,1.159,0,0,1,1.159-1.16,1.159,1.159,0,0,1,1.16,1.16A1.159,1.159,0,0,1-130.434,364.222Z" transform="translate(140 -350.614)"/><path class="a" d="M-69.592,321.6l-8.9,3.543a1.732,1.732,0,0,0-.969,2.25l3.543,8.9a1.732,1.732,0,0,0,2.25.969l8.9-3.543a1.732,1.732,0,0,0,.969-2.25l-3.543-8.9A1.732,1.732,0,0,0-69.592,321.6Zm-3.581,12.97a1.16,1.16,0,0,1-1.506-.649,1.159,1.159,0,0,1,.649-1.506,1.16,1.16,0,0,1,1.506.649A1.16,1.16,0,0,1-73.174,334.575Zm-2.251-5.656a1.159,1.159,0,0,1-1.506-.649,1.16,1.16,0,0,1,.649-1.506,1.159,1.159,0,0,1,1.506.649A1.159,1.159,0,0,1-75.425,328.918Zm8.177,3.3a1.159,1.159,0,0,1-1.506-.649,1.159,1.159,0,0,1,.649-1.506,1.159,1.159,0,0,1,1.506.649A1.159,1.159,0,0,1-67.248,332.216ZM-69.5,326.56a1.16,1.16,0,0,1-1.506-.649,1.16,1.16,0,0,1,.649-1.506,1.16,1.16,0,0,1,1.506.649A1.16,1.16,0,0,1-69.5,326.56Z" transform="translate(93.807 -321.481)"/></svg>