<svg xmlns="http://www.w3.org/2000/svg" width="23.978" height="22.45" viewBox="0 0 23.978 22.45"><defs><style>.a{fill:#fff;}</style></defs><g transform="translate(1.499 11.96)"><path class="a" d="M34.509,371.806V380.8a1.5,1.5,0,0,0,1.5,1.5H43.5v-10.49Z" transform="translate(-34.509 -371.806)"/></g><g transform="translate(0 0)"><path class="a" d="M50.621,326.966H45.88a5.822,5.822,0,0,0,.836-.67,3.133,3.133,0,0,0,0-4.409,3.167,3.167,0,0,0-4.4,0c-.65.652-2.374,3.306-2.136,5.079h-.108c.237-1.773-1.487-4.427-2.136-5.079a3.17,3.17,0,0,0-4.4,0,3.137,3.137,0,0,0,0,4.409,5.927,5.927,0,0,0,.838.67H29.641a1.5,1.5,0,0,0-1.5,1.5v2.248a.75.75,0,0,0,.749.749h9.741v-3h3v3h9.741a.75.75,0,0,0,.749-.749v-2.248A1.5,1.5,0,0,0,50.621,326.966Zm-12.077-.049a.5.5,0,0,1-.277.049,7.37,7.37,0,0,1-3.658-1.726,1.635,1.635,0,0,1,0-2.3,1.6,1.6,0,0,1,2.27,0C37.889,323.959,38.893,326.555,38.544,326.916Zm3.45.049c-.213,0-.276-.048-.276-.049-.349-.361.655-2.957,1.665-3.973a1.614,1.614,0,0,1,2.27,2.3A7.368,7.368,0,0,1,41.994,326.966Z" transform="translate(-28.142 -321)"/></g><g transform="translate(13.488 11.96)"><path class="a" d="M85.437,371.806V382.3H92.93a1.5,1.5,0,0,0,1.5-1.5v-8.992Z" transform="translate(-85.437 -371.806)"/></g></svg>